<?xml version="1.0" encoding="utf-8"?>
<!-- Generator: Adobe Illustrator 26.0.1, SVG Export Plug-In . SVG Version: 6.00 Build 0)  -->
<svg version="1.1" id="圖層_1" xmlns="http://www.w3.org/2000/svg" xmlns:xlink="http://www.w3.org/1999/xlink" x="0px" y="0px"
	 viewBox="0 0 123 55" style="enable-background:new 0 0 123 55;" xml:space="preserve">
<style type="text/css">
	.st0{fill:#1D50A2;}
	.st1{fill:#409AD6;}
	.st2{fill:#F39800;}
	.st3{fill:#FFFFFF;}
</style>
<g id="圖層_1_00000126311822033943218470000016440866904565330823_">
	<g>
		<g>
			<path class="st0" d="M57,40.7L57,40.7c-1.3,0.4-2.5,0.6-3.6,0.6c-2.5,0-4.4-0.7-5.9-2.1c-1.4-1.3-2.2-3-2.2-5.1
				c0-1.3,0.3-2.4,0.9-3.6c0.6-1.1,1.6-2,2.9-2.6c1.3-0.7,2.8-1,4.5-1c1,0,2.1,0.2,3.4,0.5v3.2c-0.8-0.5-1.7-0.8-2.7-0.8
				c-1.2,0-2.1,0.4-2.8,1.2c-0.7,0.8-1,1.8-1,3.3c0,1.2,0.3,2.2,1,3c0.7,0.7,1.6,1.1,2.7,1.1c0.8,0,1.8-0.3,2.8-0.8L57,40.7L57,40.7
				L57,40.7z"/>
			<polygon class="st0" points="58.9,27.2 58.9,27.2 63.3,27.2 63.3,41.1 58.9,41.1 58.9,27.2 			"/>
			<path class="st0" d="M71.1,33.8L71.1,33.8c-0.5,0-1,0.2-1.2,0.7c-0.3,0.4-0.4,1-0.4,1.9c0,0.8,0.1,1.5,0.4,1.9
				c0.3,0.4,0.7,0.6,1.3,0.6c0.5,0,1-0.2,1.3-0.6c0.3-0.4,0.4-1,0.4-1.9c0-0.8-0.1-1.5-0.4-1.9C72,34,71.6,33.8,71.1,33.8L71.1,33.8
				z M71,31.4L71,31.4c1.8,0,3.4,0.4,4.5,1.3c1.2,0.9,1.8,2.1,1.8,3.6c0,1.5-0.5,2.7-1.7,3.6c-1.1,0.9-2.7,1.4-4.6,1.4
				c-1.9,0-3.5-0.5-4.5-1.4c-1.1-0.9-1.6-2.1-1.6-3.5c0-1.5,0.5-2.7,1.7-3.6C67.7,31.8,69.2,31.4,71,31.4L71,31.4z"/>
			<path class="st0" d="M78.8,31.6L78.8,31.6h4.4v5.9c0,0.3,0.1,0.6,0.2,0.8c0.2,0.2,0.3,0.3,0.6,0.3c0.3,0,0.6-0.1,0.8-0.3
				c0.2-0.2,0.3-0.5,0.3-0.8v-5.9h4.5v9.5h-3.8l-0.4-1C85,40.5,84.5,40.8,84,41s-1,0.3-1.6,0.3c-1,0-1.9-0.3-2.6-1
				c-0.7-0.6-1-1.4-1-2.3L78.8,31.6L78.8,31.6L78.8,31.6z"/>
			<path class="st0" d="M98.6,34.5L98.6,34.5c-0.2-0.2-0.4-0.3-0.6-0.4C97.8,34,97.5,34,97.3,34c-0.5,0-0.9,0.2-1.2,0.6
				c-0.3,0.4-0.5,1-0.5,1.7s0.2,1.2,0.5,1.7c0.3,0.4,0.7,0.6,1.1,0.6c0.4,0,0.8-0.2,1-0.5c0.2-0.3,0.3-0.7,0.3-1.1L98.6,34.5
				L98.6,34.5L98.6,34.5z M98.6,27.2L98.6,27.2h4.5v13.9h-3.9L98.7,40c-0.4,0.4-0.9,0.8-1.3,1c-0.5,0.2-1,0.3-1.6,0.3
				c-1.4,0-2.5-0.5-3.3-1.5c-0.8-1-1.3-2.1-1.3-3.4c0-1.3,0.5-2.5,1.4-3.5c0.9-1,2.1-1.5,3.5-1.5c0.4,0,0.8,0,1.3,0.2
				c0.5,0.1,0.9,0.3,1.3,0.6V27.2L98.6,27.2L98.6,27.2z"/>
			<path class="st0" d="M93.3,49.3L93.3,49.3c-0.2,0.6-0.4,1.2-0.6,1.5c-0.2-0.4-0.3-1-0.6-1.5l-1.3-3.4h-1.1l2.4,6.2h1.1l2.4-6.2
				h-1.1L93.3,49.3L93.3,49.3L93.3,49.3z"/>
			<path class="st0" d="M100.3,49.4L100.3,49.4v1.2c0,0-0.1,0.1-0.2,0.2c-0.1,0.1-0.2,0.2-0.4,0.3c-0.1,0.1-0.3,0.2-0.5,0.2
				c-0.2,0.1-0.4,0.1-0.6,0.1c-0.2,0-0.3,0-0.5-0.1c-0.2,0-0.3-0.1-0.3-0.2c-0.1-0.1-0.2-0.2-0.3-0.3c0-0.2-0.1-0.3-0.1-0.5
				c0-0.3,0.1-0.6,0.3-0.8c0.2-0.2,0.6-0.2,1-0.2c0.3,0,0.6,0,0.8,0.1C99.9,49.3,100.1,49.4,100.3,49.4L100.3,49.4z M101.2,47
				L101.2,47c-0.2-0.4-0.5-0.7-0.9-0.9c-0.4-0.2-1-0.3-1.6-0.3c-0.2,0-0.3,0-0.5,0c-0.2,0-0.3,0-0.5,0.1c-0.2,0-0.3,0.1-0.5,0.1
				c-0.2,0-0.3,0.1-0.4,0.1l0,0v1l0.1,0c0.3-0.1,0.6-0.2,0.8-0.2c0.3-0.1,0.6-0.1,0.9-0.1c0.4,0,0.8,0.1,1,0.2
				c0.2,0.2,0.4,0.3,0.5,0.5c0,0.1,0.1,0.2,0.1,0.3c0,0.2,0,0.3,0,0.5v0.3c-0.2-0.1-0.4-0.2-0.7-0.2c-0.3,0-0.6-0.1-0.9-0.1
				c-0.3,0-0.6,0-1,0.1c-0.3,0.1-0.5,0.2-0.8,0.4c-0.2,0.2-0.3,0.3-0.5,0.6c-0.1,0.2-0.2,0.5-0.2,0.8c0,0.3,0.1,0.6,0.2,0.8
				c0.1,0.3,0.3,0.5,0.5,0.7c0.2,0.2,0.4,0.3,0.6,0.4c0.3,0.1,0.6,0.2,0.9,0.2c0.2,0,0.4,0,0.6-0.1c0.2,0,0.4-0.1,0.5-0.2
				c0.2-0.1,0.3-0.2,0.5-0.3c0.1-0.1,0.2-0.2,0.3-0.3l0.1,0.7h1V48c0-0.2,0-0.4,0-0.5C101.3,47.2,101.3,47.1,101.2,47L101.2,47z"/>
			<polygon class="st0" points="103.2,52.1 103.2,52.1 104.3,52.1 104.3,42.7 103.2,42.7 103.2,52.1 			"/>
			<polygon class="st0" points="106.2,52.1 106.2,52.1 107.3,52.1 107.3,42.7 106.2,42.7 106.2,52.1 			"/>
			<path class="st0" d="M111.6,46.7L111.6,46.7c0.2,0,0.5,0,0.6,0.1c0.2,0.1,0.3,0.2,0.5,0.3c0.1,0.2,0.2,0.3,0.3,0.5
				c0.1,0.2,0.1,0.4,0.1,0.6h-3c0-0.2,0.1-0.4,0.2-0.6c0.1-0.2,0.2-0.4,0.3-0.5c0.2-0.2,0.3-0.3,0.5-0.4
				C111.2,46.7,111.3,46.7,111.6,46.7L111.6,46.7z M113.4,46.5L113.4,46.5c-0.2-0.3-0.5-0.4-0.8-0.5c-0.3-0.1-0.6-0.2-1-0.2
				c-0.4,0-0.8,0.1-1.1,0.2c-0.3,0.2-0.6,0.4-0.9,0.7c-0.3,0.3-0.5,0.6-0.6,1c-0.2,0.4-0.2,0.9-0.2,1.5c0,0.5,0.1,1,0.2,1.4
				c0.2,0.4,0.4,0.8,0.7,1c0.3,0.3,0.6,0.4,1.1,0.5c0.4,0.1,0.8,0.2,1.3,0.2c0.4,0,0.7,0,1.1-0.1c0.3,0,0.6-0.2,0.8-0.2l0,0v-0.9
				h-0.1c-0.3,0.1-0.5,0.2-0.8,0.2c-0.3,0.1-0.6,0.1-0.9,0.1c-0.3,0-0.6,0-0.9-0.1c-0.3-0.1-0.5-0.2-0.7-0.3
				c-0.2-0.2-0.3-0.4-0.5-0.6c-0.1-0.3-0.2-0.6-0.2-0.9h4.3v0c0-0.2,0-0.2,0-0.3v-0.1c0-0.5-0.1-1-0.2-1.4
				C113.9,47,113.7,46.7,113.4,46.5L113.4,46.5z"/>
			<polygon class="st0" points="119.8,45.9 119.8,45.9 117.9,50.6 116,45.9 115.9,45.9 114.8,45.9 117.3,51.9 116,54.9 115.9,55 
				117.1,55 121,46 121,45.9 119.8,45.9 			"/>
		</g>
		<path class="st1" d="M122.1,30.6c-0.5-1-1.3-2-2.2-2.8c-1-0.8-2-1.5-3.2-1.9c-0.2-0.1-0.4-0.2-0.6-0.2c0.1-0.5,0.2-1.1,0.2-1.7
			c0-1-0.2-1.9-0.6-2.8c-0.6-1.6-1.8-2.9-3.4-3.9c-1.6-1-3.4-1.5-5.4-1.5c-1.4,0-2.7,0.3-4,0.8c-0.3-0.8-0.7-1.6-1.2-2.3
			c-1.2-1.8-2.9-3.3-5-4.4c-2.1-1.1-4.6-1.7-7-1.7c-1.9,0-3.8,0.3-5.6,1c-1.7,0.7-3.2,1.6-4.5,2.8c-0.8,0.8-1.6,1.7-2.1,2.6
			c-1.8-1.1-3.9-1.7-6.2-1.7c-0.6,0-1.3,0-1.9,0.2c-0.2-2.3-1-4.5-2.3-6.5c-1.5-2.2-3.7-3.9-6.2-5.1c-1.1-0.5-2.2-0.9-3.5-1.2
			C56.1,0.1,54.8,0,53.5,0c-1.9,0-3.7,0.2-5.5,0.8c-1.7,0.5-3.2,1.3-4.6,2.3c-1.6,1.2-2.9,2.5-3.9,4.1c-0.6,0.9-1,1.9-1.3,2.9
			c-0.8-0.2-1.6-0.3-2.4-0.3c-1.4,0-2.7,0.2-4,0.7c-1.2,0.5-2.3,1.1-3.2,1.9c-1,0.8-1.7,1.8-2.2,2.8c-0.5,1.1-0.8,2.3-0.8,3.5
			c0,0.5,0,0.9,0.1,1.3c0.6-0.1,1.2-0.2,1.8-0.2c1.6,0,3,0.5,4.3,1.2c-0.1-0.8,0-1.5,0.2-2.3c0.2-0.5,0.4-1,0.7-1.5
			c0.4-0.7,1-1.3,1.6-1.8c0.4-0.3,0.8-0.5,1.3-0.8c0.5-0.2,1.1-0.4,1.7-0.5c0.4-0.1,0.8-0.1,1.3-0.1c1.3,0,2.6,0.6,3.5,1.6
			C42.6,10.3,46.9,5.1,52.3,4c0.6-0.1,1.3-0.2,2-0.2c1.9,0,3.7,0.4,5.3,1.3c1.4,0.7,2.6,1.7,3.6,2.9c0.3,0.4,0.6,0.8,0.9,1.3
			c2,3,2.1,6.8,1.9,10.3c0.8-1.2,2-1.8,3.3-2.1c0.5-0.1,0.9-0.1,1.4-0.1c0.6,0,1.3,0.1,1.9,0.3c0.5,0.1,1,0.3,1.4,0.5
			c1.6,0.8,2.8,2.3,3.1,4.1c0.5-2.5,2-4.8,3.8-6.6c0.4-0.5,0.9-0.8,1.4-1.2c0.5-0.4,1.1-0.7,1.7-1c0.6-0.3,1.2-0.5,1.9-0.6
			c0.7-0.2,1.3-0.2,2-0.2c3.5,0,6.9,1.9,8.5,5.1c1,1.9,1.8,4,1.4,6.2c0.8-1.4,2.1-2.5,3.5-3.2c0.5-0.2,1-0.3,1.5-0.4
			c1-0.1,2.1,0,3.1,0.6c0.3,0.2,0.7,0.3,1,0.6c0.3,0.2,0.6,0.5,0.8,0.8c0.2,0.2,0.4,0.5,0.6,0.7c1.6,2.6,0.6,6-1.4,8
			c1.1-0.1,2.2-0.4,3.4-0.2c0.4,0.1,0.8,0.2,1.2,0.4c0.7,0.3,1.4,0.8,2,1.3c0.6,0.6,1,1.2,1.4,2c0.3,0.8,0.5,1.7,0.5,2.6
			c0,1.7-0.6,3.3-1.8,4.5c-0.8,0.9-1.9,1.5-3.2,1.8c0.5,0,1.1,0,1.6,0c0.3,0,0.6,0,0.9,0c0.9-0.1,1.8-0.2,2.7-0.3
			c0.2,0,0.4-0.1,0.6-0.1c1.3-0.3,2.4-1.2,3.4-1.9c0.2-0.2,0.3-0.3,0.5-0.4c1.9-1.7,2.9-4,2.9-6.4C123,33.1,122.7,31.8,122.1,30.6z"
			/>
		<g>
			<path class="st2" d="M22.7,28.1c-0.6-0.5-1.2-0.7-1.9-0.5c-0.8,0.1-1.4,0.4-1.9,1c-0.4,0.6-0.5,1.4-0.5,2.5l5.3-0.7l0-0.5
				C23.5,29.1,23.2,28.5,22.7,28.1z"/>
			<path class="st2" d="M35.4,29c0.1-0.4,0.1-0.8,0.1-1.2c0-4.4-3.5-7.9-7.9-7.9c-1.9,0-3.7,0.7-5,1.8c-1.7-2.5-4.5-4.2-7.8-4.2
				c-5.1,0-9.3,4.2-9.3,9.3c0,0.8,0.1,1.6,0.3,2.3C2.4,30,0,33,0,36.5c0,4.2,3.4,7.6,7.6,7.6h27.4c4.1,0,7.5-3.4,7.5-7.5
				C42.4,32.5,39.3,29.3,35.4,29z M21,35.9c0.8,0.4,1.8,0.6,3,0.4c0.9-0.1,1.8-0.4,2.5-0.8c0.7-0.4,1.6-1.1,2.8-2.1l0.6,4.9
				c-2.4,1.5-4.8,2.3-7,2.6c-2.9,0.4-5.3-0.1-7.3-1.4c-2-1.3-3.1-3.2-3.4-5.5c-0.3-2.3,0.3-4.4,1.8-6.2c1.5-1.8,3.7-2.9,6.6-3.3
				c2.5-0.3,4.6,0.1,6.3,1.3c1.7,1.2,2.7,3,3,5.3l0.2,1.3l-10.8,1.4C19.5,34.8,20.2,35.5,21,35.9z"/>
			<path class="st3" d="M29.7,31.1c-0.3-2.3-1.3-4.1-3-5.3c-1.7-1.2-3.8-1.6-6.3-1.3c-2.9,0.3-5,1.4-6.6,3.3
				c-1.5,1.8-2.1,3.9-1.8,6.2c0.3,2.4,1.4,4.2,3.4,5.5c2,1.3,4.4,1.8,7.3,1.4c2.2-0.3,4.5-1.2,7-2.6l-0.6-4.9
				c-1.1,1-2.1,1.7-2.8,2.1c-0.7,0.4-1.6,0.7-2.5,0.8c-1.2,0.2-2.2,0-3-0.4c-0.8-0.5-1.4-1.2-1.9-2.2l10.8-1.4L29.7,31.1z M18.4,31
				c0-1,0.1-1.9,0.5-2.5c0.4-0.6,1-0.9,1.9-1c0.7-0.1,1.3,0.1,1.9,0.5c0.5,0.4,0.8,1,1,1.7l0,0.5L18.4,31z"/>
		</g>
	</g>
</g>
</svg>
